<svg width="52" height="52" viewBox="0 0 52 52" fill="none" xmlns="http://www.w3.org/2000/svg">
<rect x="-0.00488281" width="52" height="52" rx="26" fill="#DCFD7D"/>
<path fill-rule="evenodd" clip-rule="evenodd" d="M35.6663 36.4019C35.6663 31.0565 31.3391 26.7293 25.9937 26.7293C24.2633 26.7293 22.623 27.1844 21.2268 27.9892C19.9516 27.1535 18.9025 25.9863 18.2212 24.6184C20.4529 23.1451 23.1243 22.2812 25.9963 22.2812C33.7997 22.2812 40.117 28.614 40.117 36.4019C40.117 38.0114 39.8598 39.5593 39.3585 41.0017H34.5145C35.2549 39.6364 35.6663 38.0732 35.6663 36.4019ZM17.005 32.8486C16.5654 33.9568 16.3211 35.1575 16.3211 36.4019C16.3211 38.0732 16.7453 39.6364 17.491 41.0017H12.647C12.1456 39.5593 11.873 38.0114 11.873 36.4019C11.873 33.8822 12.5415 31.527 13.696 29.4779C14.6062 30.7686 15.7297 31.9076 17.005 32.8486Z" fill="black"/>
<path fill-rule="evenodd" clip-rule="evenodd" d="M25.9934 11C27.8318 11 29.3333 12.4887 29.3333 14.3245C29.3333 16.1628 27.8292 17.649 25.9934 17.649C24.1551 17.649 22.6689 16.1603 22.6689 14.3245C22.6689 12.4861 24.1551 11 25.9934 11Z" fill="#6A52E0"/>
<path fill-rule="evenodd" clip-rule="evenodd" d="M35.6663 20.7351C35.6663 21.9796 35.4375 23.1803 34.9978 24.2885C36.2731 25.2295 37.3813 26.3685 38.3069 27.6592C39.4613 25.61 40.1144 23.2549 40.1144 20.7351C40.1144 19.1256 39.8573 17.5778 39.3559 16.1354H34.5119C35.2549 17.5007 35.6663 19.0639 35.6663 20.7351ZM30.776 29.1453C29.3645 29.9501 27.7395 30.4052 25.9937 30.4052C20.6638 30.4052 16.3211 26.078 16.3211 20.7326C16.3211 19.0613 16.7453 17.4981 17.491 16.1328H12.647C12.1456 17.5752 11.873 19.123 11.873 20.7326C11.873 28.536 18.2058 34.8532 25.9937 34.8532C28.8785 34.8532 31.5499 33.9868 33.7817 32.5161C33.0849 31.1508 32.0513 29.9809 30.776 29.1453Z" fill="#6A52E0"/>
</svg>
