<svg width="800" height="600" viewBox="0 0 800 600" fill="none" xmlns="http://www.w3.org/2000/svg">
  <defs>
    <linearGradient id="grad5" x1="0%" y1="0%" x2="100%" y2="100%">
      <stop offset="0%" style="stop-color:#6366F1;stop-opacity:1" />
      <stop offset="100%" style="stop-color:#8B5CF6;stop-opacity:1" />
    </linearGradient>
  </defs>
  <rect width="800" height="600" fill="url(#grad5)"/>
  <circle cx="400" cy="200" r="80" fill="white" opacity="0.2"/>
  <rect x="320" y="160" width="160" height="80" rx="15" fill="white" opacity="0.9"/>
  <circle cx="360" cy="200" r="15" fill="#6366F1"/>
  <circle cx="400" cy="200" r="15" fill="#8B5CF6"/>
  <circle cx="440" cy="200" r="15" fill="#6366F1"/>
  <rect x="300" y="320" width="200" height="120" rx="10" fill="white" opacity="0.9"/>
  <rect x="320" y="340" width="160" height="8" rx="4" fill="#6366F1"/>
  <rect x="320" y="360" width="120" height="6" rx="3" fill="#8B5CF6" opacity="0.7"/>
  <rect x="320" y="375" width="140" height="6" rx="3" fill="#8B5CF6" opacity="0.7"/>
  <rect x="320" y="395" width="160" height="8" rx="4" fill="#6366F1"/>
  <rect x="320" y="415" width="100" height="6" rx="3" fill="#8B5CF6" opacity="0.7"/>
  <text x="400" y="520" text-anchor="middle" fill="white" font-family="Arial, sans-serif" font-size="20" font-weight="bold">HR Service</text>
  <circle cx="150" cy="450" r="25" fill="white" opacity="0.3"/>
  <circle cx="650" cy="450" r="25" fill="white" opacity="0.3"/>
</svg>